<svg width="144" height="144" viewBox="0 0 144 144" fill="none" xmlns="http://www.w3.org/2000/svg">
<g id="love 1">
<g id="Group">
<path id="Vector" d="M72 85.5C76.9635 85.5 81 81.4635 81 76.5V72H63V76.5C63 81.4635 67.0365 85.5 72 85.5ZM76.5 76.5C76.5 78.9818 74.4818 81 72 81C69.5182 81 67.5 78.9818 67.5 76.5H76.5Z" fill="#333333"/>
<path id="Vector_2" d="M49.5 29.9295L61.6905 19.7708C63.9517 17.8852 65.25 15.1132 65.25 12.168C65.25 9.5265 64.2218 7.0425 62.3408 5.15925C60.4643 3.28275 57.9713 2.25 55.3185 2.25H54.9315C52.974 2.25 51.102 2.8125 49.5 3.86325C47.898 2.8125 46.026 2.25 44.0685 2.25H43.6815C41.0287 2.25 38.5358 3.28275 36.6458 5.1705C34.7783 7.04025 33.75 9.5265 33.75 12.168C33.75 15.1155 35.0483 17.8852 37.3095 19.7708L49.5 29.9295ZM39.8408 8.343C40.8668 7.31475 42.2325 6.75 43.6815 6.75H44.0685C45.5198 6.75 46.8832 7.31475 47.9092 8.343L49.5 9.9315L51.0908 8.343C52.1168 7.31475 53.4825 6.75 54.9315 6.75H55.3185C56.7698 6.75 58.1333 7.31475 59.1683 8.34975C60.1875 9.37125 60.75 10.728 60.75 12.168C60.75 13.7745 60.0435 15.2865 58.8082 16.3147L49.5 24.0705L40.1918 16.3147C38.9565 15.2865 38.25 13.7745 38.25 12.168C38.25 10.728 38.8125 9.37125 39.8408 8.343Z" fill="#333333"/>
<path id="Vector_3" d="M18 52.4295L30.1905 42.2708C32.4517 40.3853 33.75 37.6132 33.75 34.668C33.75 32.0265 32.7218 29.5425 30.8407 27.6593C28.9642 25.7828 26.4713 24.75 23.8185 24.75H23.4315C21.474 24.75 19.602 25.3125 18 26.3633C16.398 25.3125 14.526 24.75 12.5685 24.75H12.1815C9.52875 24.75 7.03575 25.7828 5.14575 27.6705C3.27825 29.5403 2.25 32.0265 2.25 34.668C2.25 37.6155 3.54825 40.3853 5.8095 42.2708L18 52.4295ZM8.34075 30.843C9.36675 29.8148 10.7325 29.25 12.1815 29.25H12.5685C14.0197 29.25 15.3833 29.8148 16.4093 30.843L18 32.4315L19.5907 30.843C20.6167 29.8148 21.9825 29.25 23.4315 29.25H23.8185C25.2698 29.25 26.6332 29.8148 27.6682 30.8498C28.6875 31.8713 29.25 33.228 29.25 34.668C29.25 36.2745 28.5435 37.7865 27.3083 38.8147L18 46.5705L8.69175 38.8147C7.4565 37.7865 6.75 36.2745 6.75 34.668C6.75 33.228 7.3125 31.8713 8.34075 30.843Z" fill="#333333"/>
<path id="Vector_4" d="M94.5 29.9295L106.69 19.7708C108.952 17.8852 110.25 15.1132 110.25 12.168C110.25 9.5265 109.222 7.0425 107.341 5.15925C105.464 3.28275 102.971 2.25 100.318 2.25H99.9315C97.974 2.25 96.102 2.8125 94.5 3.86325C92.898 2.8125 91.026 2.25 89.0685 2.25H88.6815C86.0288 2.25 83.5357 3.28275 81.6457 5.1705C79.7782 7.04025 78.75 9.5265 78.75 12.168C78.75 15.1155 80.0483 17.8852 82.3095 19.7708L94.5 29.9295ZM84.8408 8.343C85.8668 7.31475 87.2325 6.75 88.6815 6.75H89.0685C90.5197 6.75 91.8832 7.31475 92.9092 8.343L94.5 9.9315L96.0908 8.343C97.1168 7.31475 98.4825 6.75 99.9315 6.75H100.318C101.77 6.75 103.133 7.31475 104.168 8.34975C105.188 9.37125 105.75 10.728 105.75 12.168C105.75 13.7745 105.044 15.2865 103.808 16.3147L94.5 24.0705L85.1917 16.3147C83.9565 15.2865 83.25 13.7745 83.25 12.168C83.25 10.728 83.8125 9.37125 84.8408 8.343Z" fill="#333333"/>
<path id="Vector_5" d="M113.81 42.2708L126 52.4295L138.19 42.2708C140.452 40.3853 141.75 37.6132 141.75 34.668C141.75 32.0265 140.722 29.5425 138.841 27.6593C136.964 25.7828 134.471 24.75 131.818 24.75H131.432C129.474 24.75 127.602 25.3125 126 26.3633C124.398 25.3125 122.526 24.75 120.568 24.75H120.182C117.529 24.75 115.036 25.7828 113.146 27.6705C111.278 29.5403 110.25 32.0265 110.25 34.668C110.25 37.6132 111.548 40.3853 113.81 42.2708ZM116.341 30.843C117.367 29.8148 118.733 29.25 120.182 29.25H120.568C122.02 29.25 123.383 29.8148 124.409 30.843L126 32.4315L127.591 30.843C128.617 29.8148 129.983 29.25 131.432 29.25H131.818C133.27 29.25 134.633 29.8148 135.668 30.8498C136.688 31.8713 137.25 33.228 137.25 34.668C137.25 36.2745 136.544 37.7865 135.308 38.8147L126 46.5705L116.692 38.8147C115.456 37.7865 114.75 36.2745 114.75 34.668C114.75 33.228 115.313 31.8713 116.341 30.843Z" fill="#333333"/>
<path id="Vector_6" d="M134.554 63H131.432L129.332 60.9007C127.784 59.3527 125.725 58.5 123.536 58.5C120.004 58.5 116.879 60.7522 115.76 64.1047L115.047 66.2445L83.916 95.301L82.071 91.6087C85.9388 89.2013 88.8975 85.4527 90.2858 81.0023H92.25C97.2135 81.0023 101.25 76.9657 101.25 72.0023C101.25 69.921 100.51 68.0265 99.3195 66.4987L100.528 61.677C101.007 59.7465 101.25 57.7665 101.25 55.7865C101.25 42.3945 90.3555 31.5 76.9635 31.5H67.0365C53.6445 31.5 42.75 42.3945 42.75 55.7865C42.75 57.7643 42.993 59.7465 43.4745 61.677L44.6805 66.4942C43.4902 68.0243 42.75 69.9188 42.75 72C42.75 76.9635 46.7865 81 51.75 81H53.7165C55.1048 85.4505 58.0612 89.2013 61.9312 91.6065L60.0863 95.2987L28.953 66.2445L28.2397 64.1025C27.1215 60.7522 23.9963 58.5 20.4638 58.5C18.2745 58.5 16.2157 59.3527 14.6678 60.9007L12.5685 63H9.4455C5.47875 63 2.25 66.2287 2.25 70.1955C2.25 73.6133 4.68225 76.581 8.0325 77.2515L14.598 78.5632L45 111.137V141.75H99V111.137L129.402 78.5632L135.967 77.2515C139.318 76.581 141.75 73.6133 141.75 70.1955C141.75 66.2287 138.521 63 134.554 63ZM63 103.682L66.5438 106.517C65.313 106.886 64.1205 107.361 63 107.991V103.682ZM92.25 76.5H91.1295L91.773 67.5H92.25C94.7318 67.5 96.75 69.5182 96.75 72C96.75 74.4818 94.7318 76.5 92.25 76.5ZM47.25 72C47.25 69.5182 49.2682 67.5 51.75 67.5H52.227L52.8682 76.5H51.75C49.2682 76.5 47.25 74.4818 47.25 72ZM51.75 59.8612V60.3923C51.75 60.687 51.7612 60.9795 51.7837 61.2653L51.9075 63H51.75C50.6362 63 49.581 63.2295 48.5933 63.6007L47.8395 60.588C47.448 59.0152 47.25 57.3998 47.25 55.7865C47.25 44.8763 56.1263 36 67.0365 36H76.9635C87.8738 36 96.75 44.8763 96.75 55.7865C96.75 57.3975 96.552 59.0152 96.1605 60.5858L95.4068 63.6007C94.4212 63.2295 93.3637 63 92.25 63H92.0947L92.1848 61.7377C93.6292 60.0255 94.5 57.8137 94.5 55.4017V54H90V55.4017C90 58.3515 87.6015 60.75 84.6517 60.75C83.0182 60.75 81.4973 60.0188 80.478 58.7408L77.8118 55.4108C74.8057 51.6555 70.3237 49.5 65.511 49.5H65.25C61.8615 49.5 58.5788 50.4945 55.7573 52.3733C53.2485 54.0473 51.75 56.8462 51.75 59.8612ZM57.3705 76.3785L56.2703 60.939C56.2568 60.7568 56.25 60.5745 56.25 60.3923V59.8612C56.25 58.3537 56.9993 56.9543 58.2548 56.1173C60.3315 54.7335 62.7525 54 65.25 54H65.511C68.9467 54 72.1485 55.539 74.295 58.2233L76.9613 61.5533C78.84 63.9023 81.6435 65.25 84.6517 65.25C85.6237 65.25 86.5643 65.1082 87.4508 64.845L86.6295 76.3785C86.0827 84.0172 79.6568 90 72 90C64.3433 90 57.9172 84.0172 57.3705 76.3785ZM72 94.5C74.088 94.5 76.0995 94.1423 77.9917 93.5123L80.424 98.379L72 105.118L63.576 98.379L66.0083 93.5123C67.9005 94.1423 69.912 94.5 72 94.5ZM81 103.682V107.991C79.8795 107.361 78.687 106.886 77.4562 106.517L81 103.682ZM6.75 70.1955C6.75 68.7105 7.95825 67.5 9.4455 67.5H14.4315L17.8492 64.0823C18.5468 63.3848 19.476 63 20.4638 63C22.0568 63 23.4675 64.017 23.9737 65.5267L24.372 66.7215L15.165 74.088L8.919 72.8393C7.66125 72.5873 6.75 71.4757 6.75 70.1955ZM94.5 109.363V137.25H49.5V109.363L19.053 76.7407L26.8875 70.4722L58.5 99.9788V117.934L62.3408 114.091C64.818 111.614 68.1097 110.25 71.613 110.25H72.387C75.8903 110.25 79.1842 111.614 81.6592 114.091L85.5 117.934V99.9788L117.112 70.4722L124.947 76.7407L94.5 109.363ZM135.083 72.8393L128.837 74.088L119.63 66.7215L120.029 65.529C120.533 64.017 121.943 63 123.536 63C124.522 63 125.453 63.3848 126.151 64.0823L129.568 67.5H134.554C136.042 67.5 137.25 68.7105 137.25 70.1955C137.25 71.4757 136.339 72.5873 135.083 72.8393Z" fill="#333333"/>
</g>
</g>
</svg>
