<svg width="35" height="36" viewBox="0 0 35 36" fill="none" xmlns="http://www.w3.org/2000/svg">
<g id="play-button (3) 1" clip-path="url(#clip0_27_14)">
<g id="Vector">
<path d="M29.8057 17.3269L6.12233 0.993571C5.87161 0.821255 5.54658 0.803288 5.27871 0.942938C5.01003 1.08422 4.8418 1.36189 4.8418 1.66569V34.3324C4.8418 34.6362 5.01003 34.9146 5.27871 35.0559C5.39795 35.118 5.52861 35.149 5.65846 35.149C5.82098 35.149 5.98268 35.1 6.12233 35.0045L29.8057 18.6711C30.027 18.5184 30.1585 18.2677 30.1585 17.999C30.1585 17.7303 30.0262 17.4796 29.8057 17.3269Z" fill="white"/>
<path d="M30.0903 16.9159L30.0895 16.9153L6.4062 0.581964L6.40554 0.581511C6.00098 0.303464 5.47799 0.275179 5.04757 0.499573L5.04757 0.499571L5.04601 0.500391C4.61341 0.727864 4.3418 1.17566 4.3418 1.66569V34.3324C4.3418 34.8218 4.61292 35.2707 5.046 35.4985L5.04785 35.4994C5.23922 35.599 5.4492 35.649 5.65846 35.649C5.92178 35.649 6.18188 35.5695 6.40467 35.4171L6.4062 35.4161L30.0895 19.0827L30.0896 19.0827C30.4463 18.8366 30.6585 18.432 30.6585 17.999C30.6585 17.5652 30.4448 17.1614 30.0903 16.9159Z" stroke="black" stroke-opacity="0.5"/>
</g>
</g>
<defs>
<clipPath id="clip0_27_14">
<rect width="34.2992" height="34.2992" fill="white" transform="translate(0.349854 0.849854)"/>
</clipPath>
</defs>
</svg>
