<svg width="40" height="40" viewBox="0 0 40 40" fill="none" xmlns="http://www.w3.org/2000/svg">
<g id="play-button (3) 3" clip-path="url(#clip0_28_5)">
<g id="Vector">
<path d="M34.3514 19.2157L6.73165 0.167605C6.43926 -0.0333522 6.06021 -0.0543051 5.74782 0.108556C5.43448 0.273322 5.23828 0.597139 5.23828 0.951433V39.0476C5.23828 39.4019 5.43448 39.7266 5.74782 39.8914C5.88687 39.9638 6.03925 40 6.19068 40C6.38021 40 6.56879 39.9428 6.73165 39.8314L34.3514 20.7833C34.6095 20.6052 34.7628 20.3128 34.7628 19.9995C34.7628 19.6862 34.6085 19.3938 34.3514 19.2157Z" fill="white"/>
<path d="M34.636 18.8046L34.6352 18.8041L7.01552 -0.244002L7.01486 -0.244455C6.56863 -0.551143 5.99161 -0.582415 5.51667 -0.334809L5.51667 -0.334812L5.51511 -0.333991C5.03786 -0.0830357 4.73828 0.410914 4.73828 0.951433V39.0476C4.73828 39.5875 5.03736 40.0827 5.51511 40.334L5.51695 40.3349C5.72815 40.4449 5.95985 40.5 6.19068 40.5C6.481 40.5 6.76799 40.4124 7.01399 40.2441L7.01552 40.243L34.6352 21.1949L34.6353 21.1949C35.0288 20.9234 35.2628 20.4771 35.2628 19.9995C35.2628 19.521 35.0271 19.0755 34.636 18.8046Z" stroke="black" stroke-opacity="0.5"/>
</g>
</g>
<defs>
<clipPath id="clip0_28_5">
<rect width="40" height="40" fill="white"/>
</clipPath>
</defs>
</svg>
